Coordinates
version=1
nRows=65
nColumns=12
inDegrees=yes

Units are S.I. units (second, meters, Newtons, ...)
Angles are in degrees

endheader
time	SC_y	SC_z	SC_x	AC_y	AC_z	AC_x	GH_y	GH_z	GH_yy	EL_x	PS_y
       0.0              -19.53          14.59          34.14          67.94            9.3         -9.056         -127.3          18.59          106.6           39.7          131.7
  0.003044              -19.53          14.59          34.14          67.94          9.298         -9.054         -127.3          18.59          106.6          39.71          131.7
  0.006089              -19.53          14.59          34.13          67.94          9.296         -9.052         -127.3           18.6          106.5          39.72          131.6
  0.009133              -19.53          14.59          34.13          67.94          9.294         -9.049         -127.2          18.61          106.5          39.73          131.6
   0.01218              -19.52           14.6          34.13          67.94          9.292         -9.046         -127.2          18.62          106.5          39.73          131.6
   0.01522              -19.52           14.6          34.13          67.93           9.29         -9.043         -127.1          18.63          106.4          39.74          131.6
   0.01827              -19.52           14.6          34.12          67.93          9.288          -9.04         -127.1          18.64          106.4          39.75          131.6
   0.02131              -19.52           14.6          34.12          67.93          9.286         -9.037         -127.1          18.65          106.3          39.77          131.6
   0.02436              -19.52           14.6          34.12          67.93          9.283         -9.033         -127.0          18.66          106.3          39.78          131.6
    0.0274              -19.52          14.61          34.11          67.93           9.28         -9.029         -127.0          18.67          106.2          39.79          131.5
   0.03044              -19.52          14.61          34.11          67.92          9.277         -9.025         -126.9          18.69          106.2           39.8          131.5
   0.03349              -19.51          14.61          34.11          67.92          9.274          -9.02         -126.8           18.7          106.1          39.82          131.5
   0.03653              -19.51          14.61           34.1          67.92          9.271         -9.015         -126.8          18.72          106.1          39.83          131.5
   0.03958              -19.51          14.62           34.1          67.91          9.267          -9.01         -126.7          18.73          106.0          39.85          131.4
   0.04262              -19.51          14.62          34.09          67.91          9.263         -9.004         -126.6          18.75          105.9          39.87          131.4
   0.04567               -19.5          14.62          34.09          67.91          9.259         -8.998         -126.5          18.77          105.9          39.89          131.4
   0.04871               -19.5          14.63          34.08           67.9          9.254         -8.992         -126.4          18.79          105.8          39.91          131.4
   0.05175               -19.5          14.63          34.08           67.9          9.249         -8.984         -126.3          18.81          105.7          39.93          131.3
    0.0548              -19.49          14.64          34.07          67.89          9.243         -8.976         -126.2          18.84          105.6          39.96          131.3
   0.05784              -19.49          14.64          34.06          67.89          9.237         -8.967         -126.1          18.87          105.5          39.99          131.2
   0.06089              -19.49          14.65          34.05          67.88           9.23         -8.958         -126.0           18.9          105.3          40.02          131.2
   0.06393              -19.48          14.66          34.04          67.88          9.223         -8.947         -125.8          18.93          105.2          40.05          131.1
   0.06698              -19.48          14.66          34.03          67.87          9.215         -8.936         -125.7          18.97          105.1          40.09          131.1
   0.07002              -19.47          14.67          34.02          67.86          9.206         -8.923         -125.5          19.01          104.9          40.13          131.0
   0.07307              -19.46          14.68          34.01          67.85          9.195         -8.908         -125.3          19.05          104.7          40.18          131.0
   0.07611              -19.46          14.69           34.0          67.85          9.184         -8.892         -125.1           19.1          104.5          40.23          130.9
   0.07915              -19.45           14.7          33.98          67.83          9.171         -8.874         -124.8          19.16          104.3          40.29          130.8
    0.0822              -19.44          14.71          33.96          67.82          9.157         -8.854         -124.5          19.22          104.0          40.36          130.7
   0.08524              -19.43          14.73          33.94          67.81          9.141         -8.831         -124.2           19.3          103.8          40.43          130.6
   0.08829              -19.42          14.74          33.92          67.79          9.123         -8.805         -123.9          19.38          103.4          40.51          130.5
   0.09133              -19.41          14.76           33.9          67.78          9.102         -8.775         -123.4          19.47          103.1          40.61          130.3
   0.09438              -19.39          14.78          33.87          67.76          9.078         -8.741         -123.0          19.58          102.6          40.72          130.1
   0.09742              -19.38          14.81          33.83          67.73          9.051         -8.702         -122.4           19.7          102.1          40.85          130.0
    0.1005              -19.36          14.83          33.79          67.71          9.019         -8.657         -121.8          19.85          101.6           41.0          129.7
    0.1035              -19.33          14.87          33.75          67.67          8.981         -8.603         -121.1          20.02          100.9          41.17          129.5
    0.1066              -19.31           14.9          33.69          67.64          8.937          -8.54         -120.2          20.21          100.1          41.37          129.2
    0.1096              -19.27          14.95          33.63          67.59          8.884         -8.465         -119.2          20.45          99.16          41.61          128.8
    0.1126              -19.23           15.0          33.55          67.54          8.821         -8.376         -117.9          20.73          98.03           41.9          128.4
    0.1157              -19.19          15.07          33.46          67.48          8.745         -8.267         -116.4          21.07          96.67          42.25          127.9
    0.1187              -19.13          15.15          33.34           67.4          8.652         -8.135         -114.6          21.49           95.0          42.68          127.2
    0.1218              -19.06          15.25           33.2           67.3          8.537         -7.971         -112.3          22.01          92.95          43.21          126.4
    0.1248              -18.97          15.37          33.03          67.18          8.394         -7.767         -109.5          22.65          90.38          43.87          125.4
    0.1279              -18.86          15.53          32.81          67.03          8.213          -7.51         -105.9          23.46          87.15           44.7          124.2
    0.1309              -18.72          15.73          32.52          66.84          7.984         -7.184         -101.4          24.49          83.05          45.76          122.6
     0.134              -18.54          15.99          32.16          66.59           7.69         -6.766         -95.65          25.81          77.79          47.11          120.6
     0.137               -18.3          16.31           31.7          66.28          7.313         -6.229         -88.23           27.5          71.05          48.85          118.0
      0.14              -18.01          16.73          31.11          65.87          6.832         -5.544         -78.75          29.66          62.44          51.07          114.7
    0.1431              -17.63          17.25          30.37          65.37          6.227         -4.683         -66.83          32.37          51.61          53.86          110.5
    0.1461              -17.18          17.89          29.46          64.75          5.489         -3.633         -52.31          35.68          38.41          57.25          105.5
    0.1492              -16.65          18.64          28.41          64.03          4.634         -2.416         -35.48          39.52          23.12          61.19          99.59
    0.1522              -16.08          19.44          27.27          63.25          3.708         -1.098         -17.25          43.67          6.553          65.46          93.22
    0.1553              -15.51          20.24          26.14          62.48          2.782         0.2197         0.9747          47.83         -10.01          69.72          86.86
    0.1583              -14.98          20.98          25.09          61.76          1.927          1.437          17.81          51.67         -25.31          73.66          80.98
    0.1614              -14.53          21.62          24.18          61.14          1.189          2.487          32.33          54.97          -38.5          77.06          75.91
    0.1644              -14.16          22.15          23.44          60.64         0.5841          3.348          44.25          57.69         -49.33          79.85          71.75
    0.1674              -13.86          22.57          22.85          60.23         0.1027          4.033          53.72          59.85         -57.95          82.06          68.44
    0.1705              -13.63          22.89          22.39          59.92        -0.2742           4.57          61.14          61.54         -64.69           83.8          65.85
    0.1735              -13.44          23.15          22.03          59.67        -0.5679          4.988          66.92          62.86         -69.94          85.15          63.83
    0.1766               -13.3          23.35          21.74          59.48        -0.7974          5.314          71.44          63.89         -74.05          86.21          62.25
    0.1796              -13.19           23.5          21.52          59.33        -0.9779          5.571           75.0           64.7         -77.28          87.04          61.01
    0.1827               -13.1          23.63          21.35          59.21         -1.121          5.775          77.82          65.34         -79.84           87.7          60.03
    0.1857              -13.03          23.73          21.21          59.11         -1.236          5.939          80.08          65.86          -81.9          88.23          59.24
    0.1888              -12.98          23.81          21.09          59.03         -1.329          6.071          81.91          66.28         -83.56          88.66           58.6
    0.1918              -12.93          23.87           21.0          58.97         -1.405           6.18          83.41          66.62         -84.92          89.01          58.07
    0.1948              -12.89          23.93          20.92          58.91         -1.468          6.269          84.65           66.9         -86.05           89.3          57.64
